<?xml version="1.0" encoding="utf-8"?>
<!-- Generator: Adobe Illustrator 16.0.0, SVG Export Plug-In . SVG Version: 6.00 Build 0)  -->
<!DOCTYPE svg PUBLIC "-//W3C//DTD SVG 1.1//EN" "http://www.w3.org/Graphics/SVG/1.1/DTD/svg11.dtd">
<svg version="1.1" id="Layer_1" xmlns="http://www.w3.org/2000/svg" xmlns:xlink="http://www.w3.org/1999/xlink" x="0px" y="0px"
	 width="190.7px" height="190.7px" viewBox="0 0 190.7 190.7" enable-background="new 0 0 190.7 190.7" preserveAspectRatio="xMinYMin meet">
	 <style>
    @media screen and (max-width: 4000px) { width:50px;height:50px;}
  </style>
<g>
	<circle fill="#1D1D1B" cx="95.3" cy="95.3" r="95.3"/>
	<g>
		<g>
			<line fill="#1D1D1B" x1="65.2" y1="134.4" x2="25.6" y2="94.4"/>
			<g>
				<path fill="#FFFFFF" d="M73.2,126.5c-13.2-13.3-26.5-26.7-39.7-40c-10.2-10.3-26.1,5.6-15.9,15.9c13.2,13.3,26.5,26.7,39.7,40
					C67.5,152.7,83.4,136.8,73.2,126.5L73.2,126.5z"/>
			</g>
		</g>
		<g>
			<line fill="#1D1D1B" x1="25.4" y1="94.4" x2="55.4" y2="64.4"/>
			<g>
				<path fill="#FFFFFF" d="M33.4,102.4c10-10,20-20,30-30c10.3-10.3-5.6-26.2-15.9-15.9c-10,10-20,20-30,30
					C7.2,96.7,23.1,112.6,33.4,102.4L33.4,102.4z"/>
			</g>
		</g>
		<g>
			<line fill="#1D1D1B" x1="55.4" y1="64.4" x2="125.2" y2="134.3"/>
			<g>
				<path fill="#FFFFFF" d="M47.4,72.4c23.3,23.3,46.6,46.6,69.8,69.8c10.3,10.3,26.2-5.6,15.9-15.9C109.9,103,86.6,79.7,63.4,56.5
					C53.1,46.2,37.2,62.1,47.4,72.4L47.4,72.4z"/>
			</g>
		</g>
		<g>
			<line fill="#1D1D1B" x1="125.2" y1="134.3" x2="165.3" y2="94.2"/>
			<g>
				<path fill="#FFFFFF" d="M133.2,142.2c13.3-13.3,26.7-26.7,40-40c10.3-10.3-5.6-26.2-15.9-15.9c-13.3,13.3-26.7,26.7-40,40
					C107,136.6,122.9,152.5,133.2,142.2L133.2,142.2z"/>
			</g>
		</g>
		<g>
			<line fill="#1D1D1B" x1="164.8" y1="93.6" x2="135.6" y2="64.4"/>
			<g>
				<path fill="#FFFFFF" d="M172.8,85.6c-9.7-9.7-19.4-19.4-29.2-29.2c-10.3-10.3-26.2,5.6-15.9,15.9c9.7,9.7,19.4,19.4,29.2,29.2
					C167.1,111.8,183,95.9,172.8,85.6L172.8,85.6z"/>
			</g>
		</g>
		<g>
			<line fill="#1D1D1B" x1="134.9" y1="64.9" x2="100.5" y2="99.3"/>
			<g>
				<path fill="#FFFFFF" d="M127,57C115.5,68.4,104,79.9,92.5,91.4c-10.3,10.3,5.6,26.2,15.9,15.9c11.5-11.5,22.9-22.9,34.4-34.4
					C153.1,62.6,137.2,46.7,127,57L127,57z"/>
			</g>
		</g>
	</g>
</g>
<g>
</g>
<g>
</g>
<g>
</g>
<g>
</g>
<g>
</g>
<g>
</g>
</svg>
